<svg xmlns="http://www.w3.org/2000/svg" enable-background="new 0 0 64 64" viewBox="0 0 64 64"><polygon fill="#d8a353" points="17.7 .1 14.8 .1 4.1 4.1 2.8 4.7 17.7 4.7" class="color000000 svgShape"/><path fill="#d8a353" d="M17.7 6.2H0c0 0 0 0 0 0l.6 3.1h17.1V6.2zM23.8 6.3v3.1h17.1V6.3c0-.1 0-.2.1-.3l.8-1.5h-2.5V1.2c0-.6-.5-1-1-1-.6 0-1 .5-1 1v3.3h-3.8V1.2c0-.6-.5-1-1-1-.6 0-1 .5-1 1v3.3h-3.8V1.2c0-.6-.5-1-1-1s-1 .5-1 1v3.3h-2.5l.8 1.5C23.7 6 23.8 6.2 23.8 6.3z" class="color000000 svgShape"/><polygon fill="#d8a353" points="64 .1 61.1 .1 50.4 4.1 48.4 4.7 64 4.7" class="color000000 svgShape"/><polygon fill="#d8a353" points="46.2 6.2 46.9 9.3 64 9.3 64 6.2" class="color000000 svgShape"/><path fill="#d8a353" d="M59.4,13.2c0.1,0.1,0.1,0.2,0.1,0.4V33h2.9V14.8c0-0.1,0-0.1,0-0.2l1.3-3.8h-5.6L59.4,13.2z" class="color000000 svgShape"/><polygon fill="#d8a353" points="56.5 10.8 54.4 10.8 52.8 13.7 52.8 33 58.1 33 58.1 13.7" class="color000000 svgShape"/><path fill="#d8a353" d="M51.4 33V13.5c0-.1 0-.2.1-.3l1.3-2.4h-5.6l1.3 3.8c0 .1 0 .1 0 .2V33H51.4zM39.3 33V14.8c0-.1 0-.1 0-.2l1.3-3.8H35l1.3 2.4c.1.1.1.2.1.4V33H39.3z" class="color000000 svgShape"/><polygon fill="#d8a353" points="34.9 13.7 33.4 10.8 31.3 10.8 29.7 13.7 29.7 26.1 34.9 26.1" class="color000000 svgShape"/><rect width="5.3" height="5.4" x="29.7" y="27.6" fill="#d8a353" class="color000000 svgShape"/><path fill="#d8a353" d="M28.2 33V13.5c0-.1 0-.2.1-.3l1.3-2.4H24l1.3 3.8c0 .1 0 .1 0 .2V33H28.2zM16.2 33V14.8c0-.1 0-.2 0-.2l1.3-3.8h-5.6l1.3 2.4c.1.1.1.2.1.4V33H16.2z" class="color000000 svgShape"/><polygon fill="#d8a353" points="6.5 13.7 6.5 33 11.8 33 11.8 13.7 10.2 10.8 8.1 10.8" class="color000000 svgShape"/><path fill="#d8a353" d="M2.2 33h2.9V13.5c0-.1 0-.2.1-.3l1.3-2.4H.9l1.3 3.8c0 .1 0 .1 0 .2V33zM2.2 43.3h14.6l.4-1.6-1.7-1.8c-.2-.2-.2-.5-.2-.7.1-.3.3-.4.6-.5L32.2 36c0 0 .1 0 .1 0l.1 0 16.2 2.6c.3 0 .5.2.6.5.1.3 0 .5-.2.7l-1.7 1.8.4 1.6h14.6v-8.8H2.2V43.3z" class="color000000 svgShape"/><polygon fill="#d8a353" points="57.4 48.3 57.4 63.9 62.4 63.9 62.4 44.7 58.8 44.7" class="color000000 svgShape"/><path fill="#d8a353" d="M53.2,47.9c0,0.1,0,0.2,0,0.3v15.8H56V48.1c0-0.1,0-0.2,0.1-0.3l1.2-3.1h-5.3L53.2,47.9z" class="color000000 svgShape"/><polygon fill="#d8a353" points="47.7 44.7 46.3 48.3 46.3 63.9 51.8 63.9 51.8 48.3 50.4 44.7" class="color000000 svgShape"/><path fill="#d8a353" d="M42.1 47.9c0 .1 0 .2 0 .3v15.8h2.8V48.1c0-.1 0-.2.1-.3l1.2-3.1h-5.3L42.1 47.9zM25.3 44.7l-1.4 3.5v15.6h4V49.6c0-.4.3-.7.7-.7H36c.4 0 .7.3.7.7v14.3h4V48.3l-1.4-3.5H25.3zM19.7 47.9c0 .1 0 .2 0 .3v15.8h2.8V48.1c0-.1 0-.2.1-.3l1.2-3.1h-5.3L19.7 47.9zM46.1 41l1-1.1-14.8-2.4-14.7 2.4 1 1.1c.2.2.2.4.2.7l-.4 1.7h28.1l-.4-1.7C45.9 41.4 45.9 41.1 46.1 41z" class="color000000 svgShape"/><polygon fill="#d8a353" points="14.3 44.7 12.9 48.3 12.9 63.9 18.3 63.9 18.3 48.3 16.9 44.7" class="color000000 svgShape"/><path fill="#d8a353" d="M8.6,47.9c0,0.1,0,0.2,0,0.3v15.8h2.8V48.1c0-0.1,0-0.2,0.1-0.3l1.2-3.1H7.4L8.6,47.9z" class="color000000 svgShape"/><polygon fill="#d8a353" points="2.2 44.7 2.2 63.9 7.2 63.9 7.2 48.3 5.8 44.7" class="color000000 svgShape"/></svg>